<?xml version="1.0" encoding="utf-8"?>
<!-- Generator: Adobe Illustrator 19.2.0, SVG Export Plug-In . SVG Version: 6.00 Build 0)  -->
<svg version="1.1" id="Capa_1" xmlns="http://www.w3.org/2000/svg" xmlns:xlink="http://www.w3.org/1999/xlink" x="0px" y="0px"
	 viewBox="0 0 200 200" style="enable-background:new 0 0 200 200;" xml:space="preserve">
<style type="text/css">
	.st0{fill:none;}
	.st1{fill:#1D1D1B;}
	.st2{fill:#1B2156;}
	.st3{fill:#FFF9C5;}
	.st4{fill:#0D0D0D;}
</style>
<symbol  id="Hormiga" viewBox="-10.4 -18.4 20.8 36.9">
	<g>
		<g>
			<rect x="-10.4" y="-18.3" class="st0" width="20.8" height="36.7"/>
			<g>
				<path class="st1" d="M10.4,0.3L8.7,0.8l-2-0.5L5.6,0.5C4.7,0.8,4.4,0.6,4.4,0.6l-2.7-1L1.1-0.3c0,0.1,0,0.1,0,0.1
					C1,0.2,0.9,0.5,0.8,0.7c1,0.2,2.6,2.7,2.6,2.7C3.4,4.6,4,4,4,4c0.4,0.2,0.8,0.2,0.8,0.2c0.4,0.2,0.6-0.1,0.6-0.1
					c0.4-0.5,1.3,0,1.3,0C8,4.3,7.1,4.7,7.1,4.7L5.8,4.4L5.1,4.9C3.2,5.1,3.2,4.3,3.2,4.3C2.1,2.5,1.3,1.7,0.9,1.4
					c0.1,0.4,0.1,0.7,0,1c1.3,2.1,0.3,3.1-0.4,3.5C1.4,6,3.7,6.7,1,11.3c0.2,0.1,0.4,0.3,0.6,0.4c0.9,0.2,1.7,0.5,2.6,0.9
					c0.2,0.1,0.5,0.3,0.6,0.5C5.4,13.9,5.5,15,5.7,16c0.3,0.7,0.7,1.4,1,2.2c0,0.1,0,0.2,0,0.2c-0.1,0.1-0.1,0-0.2,0
					C6,17.8,5.6,17,5.3,16.2c-0.2-0.9-0.3-1.8-0.7-2.6c-0.1-0.2-0.3-0.3-0.5-0.4c-0.8-0.4-1.7-0.6-2.6-0.9C1.3,12,1,11.8,0.9,11.6
					c-0.1,0.1-0.1,0.2-0.2,0.3c0,0-0.4,0.4-0.9,0.4l0,0c-0.5,0-0.9-0.4-0.9-0.4c-0.1-0.1-0.1-0.2-0.2-0.3c-0.2,0.2-0.4,0.4-0.6,0.5
					c-0.9,0.3-1.8,0.5-2.6,0.9c-0.2,0.1-0.4,0.2-0.5,0.4c-0.4,0.8-0.5,1.7-0.7,2.6c-0.3,0.8-0.7,1.6-1.2,2.2c0,0.1-0.1,0.1-0.2,0
					s-0.1-0.2,0-0.2c0.3-0.7,0.7-1.4,1-2.2c0.2-1,0.3-2.1,0.9-2.9c0.2-0.2,0.4-0.4,0.6-0.5c0.8-0.4,1.7-0.6,2.6-0.9
					c0.2-0.1,0.4-0.2,0.6-0.4c-3-5.1,0.6-5.2,0.9-5.2c-0.7-0.4-1.7-1.4-0.4-3.5C-1,2.2-1,1.9-0.9,1.5c-0.5,0.3-1.2,1-2.2,2.9
					c0,0,0,0.8-2,0.5l-0.7-0.5l-1.3,0.2c0,0-0.9-0.4,0.4-0.5c0,0,0.9-0.5,1.3,0c0,0,0.1,0.3,0.6,0.1c0,0,0.4,0,0.8-0.2
					c0,0,0.6,0.5,0.6-0.6c0,0,1.6-2.5,2.6-2.7c-0.1-0.2-0.2-0.5-0.3-1l0,0l-0.6-0.1l-2.6,0.9c0,0-0.4,0.2-1.2-0.1l-1.2-0.2l-1.9,0.5
					l-1.7-0.5c0,0-0.1-0.6,1.4,0.1c0,0,2.3-1,2.6-0.9L-5-0.2c0,0,0.3-0.1,0.8-0.3c0,0,2.4-0.7,2.7-0.6c0,0,0.3,0,0.6-0.1
					c0.1-0.2,0.2-0.5,0.5-0.6C-0.8-1.8-1-2.1-1-2.4c0-0.1,0-0.2,0.1-0.3c-0.4-0.3-1-0.7-1-0.9L-2-3.9c0,0-1.4,0.2-3.6-3.2
					c0,0-0.5-0.6-0.4-0.9l-1-4c0,0-0.4-4.2-1.7-5.7c0,0,0.2-1.6,0.8,0.5c0,0,2,6.5,2.2,8.9c0,0,1.4,1.3,1.8,2.4c0,0,0.6,0.5,1.2,0.9
					C-3-5.9-3.2-6.9-2.9-8.2c0,0,1.1-2,2.8-2.2h0.4C2-10.2,3.1-8.2,3.1-8.2c0.2,1.3,0.1,2.3-0.2,3c0.6-0.4,1.2-0.9,1.2-0.9
					c0.4-1,1.8-2.4,1.8-2.4c0.2-2.4,2.2-8.9,2.2-8.9c0.6-2,0.8-0.5,0.8-0.5C7.4-16.2,7-12.1,7-12.1l-1,4c0.1,0.2-0.4,0.9-0.4,0.9
					C3.4-3.8,2-4,2-4L1.9-3.7c0,0.2-0.6,0.6-1,0.9C1-2.6,1-2.5,1-2.4c0,0.3-0.2,0.6-0.6,0.7C0.7-1.5,0.9-1.3,1-1.1
					C1.3-1.1,1.6-1,1.6-1c0.3-0.1,2.7,0.6,2.7,0.6c0.5,0.2,0.8,0.3,0.8,0.3l1.3-0.4C6.7-0.6,9,0.4,9,0.4C10.5-0.3,10.4,0.3,10.4,0.3
					z"/>
				<g>
					<path class="st2" d="M0,10c-0.2,0-0.4-0.2-0.4-0.2C-2.2,6.9-0.2,7-0.2,7H0l0,0h0.2c0,0,2.1-0.1,0.2,2.9C0.4,9.8,0.2,10,0,10"/>
					<path class="st2" d="M0,5.4c0,0-1.4-0.4-0.4-1.8c0,0,0.1,0.3,0.5,0.3c0.3-0.1,0.3-0.3,0.3-0.3C1.4,5,0,5.4,0,5.4"/>
					<path class="st2" d="M0,1.5c0.2,0.3,0.3,0,0.3,0c0.4,1.1-0.4,1.1-0.4,1.1l0,0c-0.2,0-0.7-0.2-0.3-1.1C-0.4,1.4-0.3,1.7,0,1.5"
						/>
					<ellipse class="st2" cx="0" cy="-2.4" rx="0.5" ry="0.4"/>
					<path class="st2" d="M0.5-0.3C0.4,0.7,0,0.3,0,0.3l0,0c0,0-0.4,0.4-0.5-0.6c0,0-0.1-0.7,0.5-0.8h0.1C0.6-1,0.5-0.3,0.5-0.3z"/>
					<path class="st2" d="M0-5.6c0,0-1.5-0.4-1.2-2.2c0,0,0.4-0.8,1.1-0.9H0c0.7,0.1,1.1,0.9,1.1,0.9C1.5-6,0-5.6,0-5.6"/>
				</g>
				<path class="st3" d="M0,8.4h-0.1C-0.8,7.2,0,7.2,0,7.2l0,0l0,0h0.1c0,0,0.8,0,0.1,1.1C0.2,8.4,0.1,8.4,0,8.4"/>
				<path class="st3" d="M0,4.7c0,0-0.5-0.2-0.2-0.7c0,0,0,0.1,0.2,0.1C0.1,4.1,0.2,4,0.2,4C0.5,4.5,0,4.7,0,4.7"/>
				<path class="st3" d="M0,1.7c0.1,0.1,0.1,0,0.1,0C0.3,2.1,0,2.1,0,2.1l0,0c-0.1,0-0.3-0.1-0.1-0.4C-0.2,1.7-0.1,1.8,0,1.7"/>
				<ellipse class="st3" cx="0" cy="-2.5" rx="0.2" ry="0.1"/>
				<path class="st3" d="M0.2-0.6C0.2-0.2,0-0.3,0-0.3l0,0c0,0-0.2,0.2-0.2-0.2c0,0,0-0.3,0.2-0.3l0,0C0.3-0.8,0.2-0.6,0.2-0.6z"/>
				<path class="st3" d="M-0.1-6.9c0,0-0.6-0.2-0.5-0.9c0,0,0.2-0.3,0.4-0.4H0c0.3,0,0.4,0.4,0.4,0.4C0.5-7-0.1-6.9-0.1-6.9"/>
			</g>
		</g>
	</g>
</symbol>
<use xlink:href="#Hormiga"  width="20.8" height="36.9" x="-10.4" y="-18.4" transform="matrix(9.6114 0 0 -4.497 100.0346 117.0657)" style="overflow:visible;"/>
<g>
	<g>
		<path class="st4" d="M68.7,31c2.7,2.4,4.8,4.8,6.5,7.1c1.7,2.2,3,4.1,3.7,5.5c0.5,1.1,0.8,1.9,0.8,2.6c0,0.7-0.3,1.3-0.8,1.9
			c-0.9,1-1.3,1.6-2.2,2.8c-12.9-5-25.8-10-38.6-14.9c2.3-3.2,3.5-4.7,6-7.6c1.4-1.6,2.8-2.8,4.3-3.5s2.9-1.1,4.4-1.2
			c2.5-0.1,5,0.5,7.7,1.7C63.3,26.5,65.9,28.5,68.7,31z M65.3,34c-2.1-1.5-4-2.7-5.8-3.4c-1.8-0.8-3.6-1-5.2-0.7
			c-0.8,0.2-1.5,0.4-2.1,0.8c-0.6,0.4-1.3,1-2.1,2c-0.4,0.4-0.6,0.7-1,1.1c7.5,3.9,15,7.6,22.5,11.5c0.2-0.3,0.3-0.4,0.5-0.7
			c0.5-0.6,0.8-1.1,0.9-1.5c0.1-0.4-0.1-0.9-0.3-1.5c-0.5-1-1.3-2.2-2.5-3.5C69.1,37,67.5,35.6,65.3,34z"/>
		<path class="st4" d="M85,26.8c1.9,4.2,3,7.6,3.5,10.1c0.5,2.5,0.3,4-0.7,4.6c-1,0.6-2.5,0.2-4.8-1.3c-2.3-1.5-5.1-3.8-8.4-7.2
			C69,27,63.3,21.1,57.7,15.2c1.9-1.5,2.9-2.2,4.9-3.5c4.9,6.2,9.7,12.5,14.6,18.7c1.6,2.1,3,3.5,4.1,4.4c1.1,0.9,1.9,1.1,2.5,0.8
			c0.6-0.4,0.7-1.1,0.4-2.3c-0.3-1.2-1.1-3-2.5-5.4c-3.9-6.8-7.8-13.6-11.7-20.3c2.1-1,3.1-1.5,5.1-2.4C78.3,12.3,81.7,19.6,85,26.8
			z"/>
		<path class="st4" d="M99.9,18.6c0,5.9-0.5,10.6-1.2,14.2c-0.6,3.5-1.4,5.3-2.6,5.5c-1.2,0.2-2.5-1.2-4.4-4.3s-4.2-7.3-6.3-12.9
			c-2.2-5.6-3.1-10.3-2.5-14.2c0.6-3.9,2.9-6.2,6.2-6.8c3.4-0.6,6.2,1,8.2,4.3C99.2,7.9,99.9,12.7,99.9,18.6z M96.2,28.3
			c0.2-1.1,0.2-2.5,0.2-4.1s-0.1-3.4-0.3-5.4c-0.2-2.2-0.5-4.1-0.9-5.6s-0.9-2.8-1.4-3.7c-0.5-0.9-1.1-1.6-1.7-2
			c-0.6-0.4-1.2-0.5-1.8-0.4c-0.6,0.1-1.1,0.4-1.6,1c-0.4,0.5-0.8,1.4-0.9,2.4c-0.2,1-0.2,2.3,0.1,4s0.6,3.5,1.2,5.6
			c0.6,2.2,1.2,4,1.8,5.4c0.6,1.5,1.1,2.7,1.6,3.5c0.5,0.9,0.9,1.6,1.3,2c0.4,0.4,0.8,0.5,1.1,0.5c0.3-0.1,0.6-0.3,0.8-0.9
			C95.9,30.1,96.1,29.3,96.2,28.3z"/>
		<path class="st4" d="M112.2,27.9c-0.6,1.7-1.4,3.1-2,4.4c-0.7,1.2-1.4,2.3-1.9,3.1c-0.7,0.9-1.3,1.6-1.8,2c-0.5,0.3-1,0.4-1.6,0.3
			c-1.4-0.3-2-0.4-3.4-0.4c0.8-12.4,1.6-24.8,2.4-37.2c3.2,0.2,4.8,0.4,8,1c1.7,0.3,2.8,0.7,3.6,1.1c0.7,0.4,1.4,1,1.8,1.9
			c0.5,0.9,0.8,2,0.8,3.3c-0.1,1.2-0.3,2.6-0.9,4.1c-0.6,1.7-1.4,3.1-2.2,4.3c-0.9,1.2-1.7,2-2.6,2.5c0,0.1-0.1,0.1-0.1,0.2
			c0.8,0.8,1.2,1.9,1.2,3.5C113.6,23.7,113.1,25.6,112.2,27.9z M112.2,12c0.2-0.6,0.2-1.2,0.2-1.8c0-0.7-0.2-1.1-0.4-1.5
			c-0.3-0.3-0.6-0.5-1.2-0.7c-0.5-0.1-1.2-0.3-2.2-0.4c-0.2-0.1-0.3-0.1-0.4-0.1c-0.5,3.1-0.7,4.7-1.2,7.8c0.3,0.1,0.4,0.1,0.6,0.1
			c0.6,0.1,1.2,0.2,1.6,0.2c0.4,0.1,0.9-0.1,1.1-0.3c0.4-0.3,0.8-0.7,1.1-1.3C111.7,13.4,111.9,12.8,112.2,12z M109.2,26.9
			c0.3-1.1,0.5-2.1,0.5-2.7c0-0.7-0.1-1.2-0.4-1.6c-0.2-0.3-0.5-0.5-1-0.6c-0.5-0.1-1-0.2-1.5-0.3c-0.3-0.1-0.4-0.1-0.8-0.1
			c-0.6,3.7-0.9,5.5-1.4,9.2c0.1,0,0.1,0,0.2,0.1c0.8,0.1,1.2,0.2,1.6,0.3s0.6-0.1,1-0.4c0.4-0.3,0.7-0.8,1-1.5
			C108.6,28.5,108.9,27.7,109.2,26.9z"/>
		<path class="st4" d="M125.5,33c-3.2,3.4-6.1,5.7-8.4,7.2c-2.2,1.5-3.7,1.9-4.8,1.3c-1-0.6-1.2-2.1-0.7-4.6c0.5-2.5,1.5-5.9,3.5-10
			c3.3-7.2,6.6-14.5,10-21.7c2.1,0.9,3.1,1.4,5.1,2.4c-3.9,6.7-7.8,13.5-11.7,20.2c-1.3,2.3-2.1,4-2.5,5.3c-0.4,1.2-0.3,2,0.3,2.4
			c0.6,0.4,1.4,0.1,2.4-0.7c1-0.8,2.4-2.2,4.1-4.4c4.8-6.2,9.7-12.4,14.5-18.6c2,1.3,3,2,4.9,3.5C136.7,21.2,131,27.1,125.5,33z"/>
		<path class="st4" d="M125.5,49.9c-1-0.2-2-0.4-3.1-0.7c-1.1-0.3-1.8-0.7-2.3-1.2c-1-1.2-0.4-3,1.6-6c2-3,5.3-6.7,9.7-11
			c3.3-3.1,8.4-6.7,13.1-7.5c4.4-0.8,8.5,0.5,11.4,4c1.1,1.3,1.9,2.7,2.5,4.2c0.5,1.5,0.8,3.3,0.5,5.3c-3.6,1.4-5.4,2.1-9,3.4
			c-0.2-0.2-0.2-0.3-0.4-0.5c0.2-0.4,0.5-0.9,0.8-1.6c0.3-0.7,0.5-1.4,0.7-2c0.2-0.7,0.2-1.5,0.1-2.3c-0.2-0.8-0.5-1.6-1.1-2.3
			c-0.7-0.8-1.6-1.4-2.5-1.7c-1-0.3-2.2-0.4-3.5-0.3c-1.3,0.2-2.7,0.6-4.2,1.3s-3.1,1.7-4.8,3c-3.5,2.5-5.8,4.8-7.1,6.7
			c-1.4,1.8-1.6,3.2-0.7,4.3c0.1,0.1,0.2,0.2,0.3,0.3c0.1,0.1,0.2,0.2,0.3,0.3c2.8-1.4,4.2-2.1,7-3.6c-0.8-1-1.2-1.5-2-2.4
			c2.5-1.6,3.8-2.3,6.3-3.9c2.3,2.5,3.4,3.9,5.5,6.8C138.1,45.1,131.8,47.5,125.5,49.9z"/>
	</g>
</g>
</svg>
